<mxfile host="app.diagrams.net" agent="Mozilla/5.0 (Windows NT 10.0; Win64; x64) AppleWebKit/537.36 (KHTML, like Gecko) Chrome/131.0.0.0 Safari/537.36" version="25.0.3">
  <diagram id="6a731a19-8d31-9384-78a2-239565b7b9f0" name="Page-1">
    <mxGraphModel dx="989" dy="532" grid="1" gridSize="10" guides="1" tooltips="1" connect="1" arrows="1" fold="1" page="1" pageScale="1" pageWidth="1169" pageHeight="827" background="none" math="0" shadow="0">
      <root>
        <mxCell id="0" />
        <mxCell id="1" parent="0" />
        <mxCell id="2" value="start" style="shape=mxgraph.flowchart.terminator;strokeWidth=2;gradientColor=#d5739d;gradientDirection=north;fontStyle=0;html=1;fillColor=#e6d0de;strokeColor=#996185;" parent="1" vertex="1">
          <mxGeometry x="261" y="134" width="120" height="30" as="geometry" />
        </mxCell>
        <mxCell id="3" value="Hardware Initialization" style="shape=mxgraph.flowchart.data;strokeWidth=2;gradientDirection=north;fontStyle=0;html=1;fillColor=#cdeb8b;strokeColor=#36393d;" parent="1" vertex="1">
          <mxGeometry x="240.5" y="272" width="159" height="47" as="geometry" />
        </mxCell>
        <mxCell id="9grUYpP2KnfNKmfIfECx-57" style="edgeStyle=orthogonalEdgeStyle;rounded=1;orthogonalLoop=1;jettySize=auto;html=1;exitX=1;exitY=0.5;exitDx=0;exitDy=0;exitPerimeter=0;entryX=0.5;entryY=0.09;entryDx=0;entryDy=0;entryPerimeter=0;strokeColor=#003366;curved=0;" parent="1" source="6" target="9grUYpP2KnfNKmfIfECx-54" edge="1">
          <mxGeometry relative="1" as="geometry">
            <mxPoint x="420" y="357" as="targetPoint" />
            <Array as="points">
              <mxPoint x="440" y="498" />
              <mxPoint x="440" y="350" />
              <mxPoint x="321" y="350" />
            </Array>
          </mxGeometry>
        </mxCell>
        <mxCell id="_yVo6fdB9gTvsx6Fb8gO-57" style="edgeStyle=orthogonalEdgeStyle;rounded=0;orthogonalLoop=1;jettySize=auto;html=1;exitX=0.5;exitY=1;exitDx=0;exitDy=0;exitPerimeter=0;entryX=0.5;entryY=0;entryDx=0;entryDy=0;strokeColor=#003366;" edge="1" parent="1" source="6" target="_yVo6fdB9gTvsx6Fb8gO-53">
          <mxGeometry relative="1" as="geometry" />
        </mxCell>
        <mxCell id="6" value="I2C&lt;div&gt;Interrupt?&lt;/div&gt;" style="shape=mxgraph.flowchart.decision;strokeWidth=2;gradientColor=#ffd966;gradientDirection=north;fontStyle=0;html=1;fillColor=#fff2cc;strokeColor=#d6b656;" parent="1" vertex="1">
          <mxGeometry x="272" y="469" width="98" height="57" as="geometry" />
        </mxCell>
        <mxCell id="11" value="No" style="text;fontStyle=0;html=1;strokeColor=none;gradientColor=none;fillColor=none;strokeWidth=2;" parent="1" vertex="1">
          <mxGeometry x="370" y="469" width="40" height="26" as="geometry" />
        </mxCell>
        <mxCell id="14" value="Yes" style="text;fontStyle=0;html=1;strokeColor=none;gradientColor=none;fillColor=none;strokeWidth=2;align=center;" parent="1" vertex="1">
          <mxGeometry x="320" y="537" width="40" height="26" as="geometry" />
        </mxCell>
        <mxCell id="_yVo6fdB9gTvsx6Fb8gO-68" style="edgeStyle=orthogonalEdgeStyle;rounded=1;orthogonalLoop=1;jettySize=auto;html=1;exitX=0.5;exitY=0.91;exitDx=0;exitDy=0;exitPerimeter=0;entryX=1;entryY=0.5;entryDx=0;entryDy=0;curved=0;strokeColor=#003366;" edge="1" parent="1" source="_YsPf8JZZJYzELwnrwj9-57" target="_yVo6fdB9gTvsx6Fb8gO-54">
          <mxGeometry relative="1" as="geometry">
            <Array as="points">
              <mxPoint x="546" y="1428" />
            </Array>
          </mxGeometry>
        </mxCell>
        <mxCell id="_YsPf8JZZJYzELwnrwj9-57" value="&lt;div&gt;Set Error Register&lt;/div&gt;" style="shape=mxgraph.flowchart.paper_tape;strokeWidth=2;gradientDirection=north;fontStyle=0;html=1;fillColor=#cdeb8b;strokeColor=#36393d;" parent="1" vertex="1">
          <mxGeometry x="471" y="1003" width="150" height="82" as="geometry" />
        </mxCell>
        <mxCell id="_YsPf8JZZJYzELwnrwj9-63" value="Extract&amp;nbsp; parameter&lt;div&gt;&amp;nbsp;from command&lt;/div&gt;&lt;div&gt;(Second Byte)&lt;/div&gt;" style="shape=mxgraph.flowchart.data;strokeWidth=2;gradientDirection=north;fontStyle=0;html=1;fillColor=#cdeb8b;strokeColor=#36393d;" parent="1" vertex="1">
          <mxGeometry x="241.5" y="777" width="159" height="80" as="geometry" />
        </mxCell>
        <mxCell id="_yVo6fdB9gTvsx6Fb8gO-67" style="edgeStyle=orthogonalEdgeStyle;rounded=1;orthogonalLoop=1;jettySize=auto;html=1;exitX=1;exitY=0.5;exitDx=0;exitDy=0;exitPerimeter=0;entryX=0.511;entryY=0.118;entryDx=0;entryDy=0;entryPerimeter=0;curved=0;strokeColor=#003366;" edge="1" parent="1" source="_YsPf8JZZJYzELwnrwj9-65" target="_YsPf8JZZJYzELwnrwj9-57">
          <mxGeometry relative="1" as="geometry" />
        </mxCell>
        <mxCell id="_YsPf8JZZJYzELwnrwj9-65" value="Valid&lt;br&gt;&lt;div&gt;parameter?&lt;/div&gt;" style="shape=mxgraph.flowchart.decision;strokeWidth=2;gradientColor=#ffd966;gradientDirection=north;fontStyle=0;html=1;fillColor=#fff2cc;strokeColor=#d6b656;" parent="1" vertex="1">
          <mxGeometry x="261.5" y="897" width="119" height="70" as="geometry" />
        </mxCell>
        <mxCell id="_YsPf8JZZJYzELwnrwj9-85" value="No" style="text;fontStyle=0;html=1;strokeColor=none;gradientColor=none;fillColor=none;strokeWidth=2;" parent="1" vertex="1">
          <mxGeometry x="392" y="907" width="40" height="16" as="geometry" />
        </mxCell>
        <mxCell id="_YsPf8JZZJYzELwnrwj9-91" value="Execute Command" style="shape=mxgraph.flowchart.data;strokeWidth=2;gradientDirection=north;fontStyle=0;html=1;fillColor=#cdeb8b;strokeColor=#36393d;" parent="1" vertex="1">
          <mxGeometry x="241" y="1013" width="159" height="50" as="geometry" />
        </mxCell>
        <mxCell id="_yVo6fdB9gTvsx6Fb8gO-64" style="edgeStyle=orthogonalEdgeStyle;rounded=0;orthogonalLoop=1;jettySize=auto;html=1;exitX=0.5;exitY=1;exitDx=0;exitDy=0;exitPerimeter=0;entryX=0.5;entryY=0;entryDx=0;entryDy=0;strokeColor=#003366;" edge="1" parent="1" source="_YsPf8JZZJYzELwnrwj9-94" target="_yVo6fdB9gTvsx6Fb8gO-54">
          <mxGeometry relative="1" as="geometry" />
        </mxCell>
        <mxCell id="_YsPf8JZZJYzELwnrwj9-94" value="Send Answer&lt;div&gt;&amp;nbsp;on I2C port&lt;/div&gt;" style="shape=mxgraph.flowchart.data;strokeWidth=2;gradientDirection=north;fontStyle=0;html=1;fillColor=#ffcc99;strokeColor=#36393d;" parent="1" vertex="1">
          <mxGeometry x="239.5" y="1297" width="159" height="60" as="geometry" />
        </mxCell>
        <mxCell id="_YsPf8JZZJYzELwnrwj9-104" style="edgeStyle=orthogonalEdgeStyle;rounded=0;orthogonalLoop=1;jettySize=auto;html=1;exitX=0.5;exitY=1;exitDx=0;exitDy=0;exitPerimeter=0;entryX=0.5;entryY=0;entryDx=0;entryDy=0;entryPerimeter=0;strokeColor=#003366;" parent="1" source="_YsPf8JZZJYzELwnrwj9-63" target="_YsPf8JZZJYzELwnrwj9-65" edge="1">
          <mxGeometry relative="1" as="geometry" />
        </mxCell>
        <mxCell id="_YsPf8JZZJYzELwnrwj9-107" value="Collect Answer&lt;div&gt;(Single Byte)&lt;/div&gt;" style="shape=mxgraph.flowchart.data;strokeWidth=2;gradientDirection=north;fontStyle=0;html=1;fillColor=#cdeb8b;strokeColor=#36393d;" parent="1" vertex="1">
          <mxGeometry x="237.5" y="1207" width="155.5" height="55" as="geometry" />
        </mxCell>
        <mxCell id="_YsPf8JZZJYzELwnrwj9-118" value="No" style="text;fontStyle=0;html=1;strokeColor=none;gradientColor=none;fillColor=none;strokeWidth=2;" parent="1" vertex="1">
          <mxGeometry x="390" y="1107" width="40" height="16" as="geometry" />
        </mxCell>
        <mxCell id="_YsPf8JZZJYzELwnrwj9-121" value="Yes" style="text;fontStyle=0;html=1;strokeColor=none;gradientColor=none;fillColor=none;strokeWidth=2;align=center;" parent="1" vertex="1">
          <mxGeometry x="322" y="976" width="40" height="26" as="geometry" />
        </mxCell>
        <mxCell id="9grUYpP2KnfNKmfIfECx-54" value="Heartbeat Led Flash" style="shape=mxgraph.flowchart.paper_tape;strokeWidth=2;gradientDirection=north;fontStyle=0;html=1;fillColor=#cdeb8b;strokeColor=#36393d;" parent="1" vertex="1">
          <mxGeometry x="245.5" y="370" width="150" height="72" as="geometry" />
        </mxCell>
        <mxCell id="9grUYpP2KnfNKmfIfECx-58" value="Parse command&amp;nbsp;&lt;div&gt;(First byte)&lt;/div&gt;" style="shape=mxgraph.flowchart.data;strokeWidth=2;gradientDirection=north;fontStyle=0;html=1;fillColor=#cdeb8b;strokeColor=#36393d;" parent="1" vertex="1">
          <mxGeometry x="239.5" y="687" width="159" height="56" as="geometry" />
        </mxCell>
        <mxCell id="_yVo6fdB9gTvsx6Fb8gO-83" style="edgeStyle=orthogonalEdgeStyle;rounded=0;orthogonalLoop=1;jettySize=auto;html=1;exitX=0.5;exitY=1;exitDx=0;exitDy=0;exitPerimeter=0;entryX=0;entryY=1;entryDx=0;entryDy=0;strokeColor=#003366;" edge="1" parent="1" source="_yVo6fdB9gTvsx6Fb8gO-51" target="_yVo6fdB9gTvsx6Fb8gO-66">
          <mxGeometry relative="1" as="geometry" />
        </mxCell>
        <mxCell id="_yVo6fdB9gTvsx6Fb8gO-51" value="Answer&amp;nbsp;&lt;div&gt;Required?&lt;/div&gt;" style="shape=mxgraph.flowchart.decision;strokeWidth=2;gradientColor=#ffd966;gradientDirection=north;fontStyle=0;html=1;fillColor=#fff2cc;strokeColor=#d6b656;" vertex="1" parent="1">
          <mxGeometry x="261" y="1098" width="119" height="70" as="geometry" />
        </mxCell>
        <mxCell id="_yVo6fdB9gTvsx6Fb8gO-53" value="Interrupt Service Routine" style="rounded=1;whiteSpace=wrap;html=1;fillColor=#e1d5e7;strokeColor=#9673a6;" vertex="1" parent="1">
          <mxGeometry x="261" y="586" width="120" height="60" as="geometry" />
        </mxCell>
        <mxCell id="_yVo6fdB9gTvsx6Fb8gO-54" value="End of Interrupt" style="rounded=1;whiteSpace=wrap;html=1;fillColor=#e1d5e7;strokeColor=#9673a6;" vertex="1" parent="1">
          <mxGeometry x="259" y="1398" width="120" height="60" as="geometry" />
        </mxCell>
        <mxCell id="_yVo6fdB9gTvsx6Fb8gO-56" style="edgeStyle=orthogonalEdgeStyle;rounded=0;orthogonalLoop=1;jettySize=auto;html=1;exitX=0.5;exitY=0.91;exitDx=0;exitDy=0;exitPerimeter=0;entryX=0.5;entryY=0;entryDx=0;entryDy=0;entryPerimeter=0;strokeColor=#003366;" edge="1" parent="1" source="9grUYpP2KnfNKmfIfECx-54" target="6">
          <mxGeometry relative="1" as="geometry" />
        </mxCell>
        <mxCell id="_yVo6fdB9gTvsx6Fb8gO-58" style="edgeStyle=orthogonalEdgeStyle;rounded=0;orthogonalLoop=1;jettySize=auto;html=1;exitX=0.5;exitY=1;exitDx=0;exitDy=0;entryX=0.5;entryY=0;entryDx=0;entryDy=0;entryPerimeter=0;strokeColor=#003366;" edge="1" parent="1" source="_yVo6fdB9gTvsx6Fb8gO-53">
          <mxGeometry relative="1" as="geometry">
            <mxPoint x="321" y="654" as="sourcePoint" />
            <mxPoint x="320.0000000000002" y="686.9999999999999" as="targetPoint" />
          </mxGeometry>
        </mxCell>
        <mxCell id="_yVo6fdB9gTvsx6Fb8gO-59" style="edgeStyle=orthogonalEdgeStyle;rounded=0;orthogonalLoop=1;jettySize=auto;html=1;exitX=0.5;exitY=1;exitDx=0;exitDy=0;exitPerimeter=0;entryX=0.5;entryY=0;entryDx=0;entryDy=0;entryPerimeter=0;strokeColor=#003366;" edge="1" parent="1" source="9grUYpP2KnfNKmfIfECx-58" target="_YsPf8JZZJYzELwnrwj9-63">
          <mxGeometry relative="1" as="geometry" />
        </mxCell>
        <mxCell id="_yVo6fdB9gTvsx6Fb8gO-60" style="edgeStyle=orthogonalEdgeStyle;rounded=0;orthogonalLoop=1;jettySize=auto;html=1;exitX=0.5;exitY=1;exitDx=0;exitDy=0;exitPerimeter=0;entryX=0.5;entryY=0;entryDx=0;entryDy=0;entryPerimeter=0;strokeColor=#003366;" edge="1" parent="1" source="_YsPf8JZZJYzELwnrwj9-65" target="_YsPf8JZZJYzELwnrwj9-91">
          <mxGeometry relative="1" as="geometry" />
        </mxCell>
        <mxCell id="_yVo6fdB9gTvsx6Fb8gO-61" style="edgeStyle=orthogonalEdgeStyle;rounded=0;orthogonalLoop=1;jettySize=auto;html=1;exitX=0.5;exitY=1;exitDx=0;exitDy=0;exitPerimeter=0;entryX=0.5;entryY=0;entryDx=0;entryDy=0;entryPerimeter=0;strokeColor=#003366;" edge="1" parent="1" source="_YsPf8JZZJYzELwnrwj9-91" target="_yVo6fdB9gTvsx6Fb8gO-51">
          <mxGeometry relative="1" as="geometry" />
        </mxCell>
        <mxCell id="_yVo6fdB9gTvsx6Fb8gO-63" style="edgeStyle=orthogonalEdgeStyle;rounded=0;orthogonalLoop=1;jettySize=auto;html=1;exitX=0.5;exitY=1;exitDx=0;exitDy=0;exitPerimeter=0;entryX=0.5;entryY=0;entryDx=0;entryDy=0;entryPerimeter=0;strokeColor=#003366;" edge="1" parent="1" source="_YsPf8JZZJYzELwnrwj9-107" target="_YsPf8JZZJYzELwnrwj9-94">
          <mxGeometry relative="1" as="geometry">
            <Array as="points">
              <mxPoint x="319" y="1262" />
            </Array>
          </mxGeometry>
        </mxCell>
        <mxCell id="_yVo6fdB9gTvsx6Fb8gO-66" value="Yes" style="text;fontStyle=0;html=1;strokeColor=none;gradientColor=none;fillColor=none;strokeWidth=2;align=center;" vertex="1" parent="1">
          <mxGeometry x="320" y="1181" width="40" height="26" as="geometry" />
        </mxCell>
        <mxCell id="_yVo6fdB9gTvsx6Fb8gO-72" style="edgeStyle=orthogonalEdgeStyle;rounded=0;orthogonalLoop=1;jettySize=auto;html=1;strokeColor=#003366;entryX=0.5;entryY=0.09;entryDx=0;entryDy=0;entryPerimeter=0;exitX=0.5;exitY=1;exitDx=0;exitDy=0;exitPerimeter=0;" edge="1" parent="1" source="3" target="9grUYpP2KnfNKmfIfECx-54">
          <mxGeometry relative="1" as="geometry">
            <mxPoint x="321" y="320" as="sourcePoint" />
          </mxGeometry>
        </mxCell>
        <mxCell id="_yVo6fdB9gTvsx6Fb8gO-70" value="Read Gpio pins to&amp;nbsp;&lt;span style=&quot;background-color: initial;&quot;&gt;set&lt;/span&gt;&lt;div&gt;&lt;div&gt;I2C Address&lt;/div&gt;&lt;/div&gt;" style="shape=mxgraph.flowchart.data;strokeWidth=2;gradientDirection=north;fontStyle=0;html=1;fillColor=#cdeb8b;strokeColor=#36393d;" vertex="1" parent="1">
          <mxGeometry x="235.5" y="192" width="169" height="47" as="geometry" />
        </mxCell>
        <mxCell id="_yVo6fdB9gTvsx6Fb8gO-80" style="edgeStyle=orthogonalEdgeStyle;rounded=0;orthogonalLoop=1;jettySize=auto;html=1;exitX=0.5;exitY=1;exitDx=0;exitDy=0;exitPerimeter=0;entryX=0.5;entryY=0;entryDx=0;entryDy=0;entryPerimeter=0;strokeColor=#003366;" edge="1" parent="1" source="2" target="_yVo6fdB9gTvsx6Fb8gO-70">
          <mxGeometry relative="1" as="geometry" />
        </mxCell>
        <mxCell id="_yVo6fdB9gTvsx6Fb8gO-81" style="edgeStyle=orthogonalEdgeStyle;rounded=0;orthogonalLoop=1;jettySize=auto;html=1;exitX=0.5;exitY=1;exitDx=0;exitDy=0;exitPerimeter=0;entryX=0.5;entryY=0;entryDx=0;entryDy=0;entryPerimeter=0;strokeColor=#003366;" edge="1" parent="1" source="_yVo6fdB9gTvsx6Fb8gO-70" target="3">
          <mxGeometry relative="1" as="geometry" />
        </mxCell>
        <mxCell id="_yVo6fdB9gTvsx6Fb8gO-89" style="edgeStyle=orthogonalEdgeStyle;rounded=1;orthogonalLoop=1;jettySize=auto;html=1;entryX=1;entryY=0.5;entryDx=0;entryDy=0;curved=0;strokeColor=#003366;" edge="1" parent="1" source="_yVo6fdB9gTvsx6Fb8gO-51" target="_yVo6fdB9gTvsx6Fb8gO-54">
          <mxGeometry relative="1" as="geometry">
            <Array as="points">
              <mxPoint x="450" y="1133" />
              <mxPoint x="450" y="1428" />
            </Array>
          </mxGeometry>
        </mxCell>
        <mxCell id="_yVo6fdB9gTvsx6Fb8gO-90" style="edgeStyle=orthogonalEdgeStyle;rounded=1;orthogonalLoop=1;jettySize=auto;html=1;strokeColor=#003366;curved=0;entryX=0;entryY=0.412;entryDx=0;entryDy=0;entryPerimeter=0;exitX=0.5;exitY=1;exitDx=0;exitDy=0;" edge="1" parent="1" source="_yVo6fdB9gTvsx6Fb8gO-54" target="9grUYpP2KnfNKmfIfECx-54">
          <mxGeometry relative="1" as="geometry">
            <mxPoint x="320" y="1460" as="sourcePoint" />
            <mxPoint x="191" y="400" as="targetPoint" />
            <Array as="points">
              <mxPoint x="320" y="1458" />
              <mxPoint x="320" y="1480" />
              <mxPoint x="131" y="1480" />
              <mxPoint x="131" y="400" />
            </Array>
          </mxGeometry>
        </mxCell>
      </root>
    </mxGraphModel>
  </diagram>
</mxfile>
